<svg width="98" height="12" viewBox="0 0 98 12" fill="none" xmlns="http://www.w3.org/2000/svg">
<path d="M2.856 9V1.74L3.3 2.184H0.18V0.599999H7.464V2.184H4.344L4.776 1.74V9H2.856ZM8.60934 7.416C9.07334 7.552 9.46134 7.592 9.77334 7.536C10.0933 7.472 10.3773 7.248 10.6253 6.864L11.0333 6.252L11.2133 6.048L13.9973 0.599999H15.9053L12.3293 7.248C12.0093 7.848 11.6293 8.308 11.1893 8.628C10.7573 8.948 10.2813 9.128 9.76134 9.168C9.24134 9.216 8.70134 9.124 8.14134 8.892L8.60934 7.416ZM11.1773 7.668L7.38534 0.599999H9.46134L12.2453 6.24L11.1773 7.668ZM16.8292 9V0.599999H20.4652C21.2172 0.599999 21.8652 0.724 22.4092 0.972C22.9532 1.212 23.3732 1.56 23.6692 2.016C23.9652 2.472 24.1132 3.016 24.1132 3.648C24.1132 4.272 23.9652 4.812 23.6692 5.268C23.3732 5.724 22.9532 6.076 22.4092 6.324C21.8652 6.564 21.2172 6.684 20.4652 6.684H17.9092L18.7732 5.808V9H16.8292ZM18.7732 6.024L17.9092 5.1H20.3572C20.9572 5.1 21.4052 4.972 21.7012 4.716C21.9972 4.46 22.1452 4.104 22.1452 3.648C22.1452 3.184 21.9972 2.824 21.7012 2.568C21.4052 2.312 20.9572 2.184 20.3572 2.184H17.9092L18.7732 1.26V6.024ZM25.3956 9V0.599999H32.1756V2.148H27.3276V3.876H29.6556C30.6716 3.876 31.4436 4.088 31.9716 4.512C32.5076 4.936 32.7756 5.552 32.7756 6.36C32.7756 7.192 32.4796 7.84 31.8876 8.304C31.2956 8.768 30.4596 9 29.3796 9H25.3956ZM27.3276 7.56H29.2716C29.7676 7.56 30.1476 7.464 30.4116 7.272C30.6756 7.072 30.8076 6.784 30.8076 6.408C30.8076 5.672 30.2956 5.304 29.2716 5.304H27.3276V7.56ZM38.2749 9.144C37.6109 9.144 36.9949 9.036 36.4269 8.82C35.8669 8.604 35.3789 8.3 34.9629 7.908C34.5549 7.516 34.2349 7.056 34.0029 6.528C33.7789 6 33.6669 5.424 33.6669 4.8C33.6669 4.176 33.7789 3.6 34.0029 3.072C34.2349 2.544 34.5589 2.084 34.9749 1.692C35.3909 1.3 35.8789 0.995999 36.4389 0.779999C36.9989 0.564 37.6069 0.456 38.2629 0.456C38.9269 0.456 39.5349 0.564 40.0869 0.779999C40.6469 0.995999 41.1309 1.3 41.5389 1.692C41.9549 2.084 42.2789 2.544 42.5109 3.072C42.7429 3.592 42.8589 4.168 42.8589 4.8C42.8589 5.424 42.7429 6.004 42.5109 6.54C42.2789 7.068 41.9549 7.528 41.5389 7.92C41.1309 8.304 40.6469 8.604 40.0869 8.82C39.5349 9.036 38.9309 9.144 38.2749 9.144ZM38.2629 7.488C38.6389 7.488 38.9829 7.424 39.2949 7.296C39.6149 7.168 39.8949 6.984 40.1349 6.744C40.3749 6.504 40.5589 6.22 40.6869 5.892C40.8229 5.564 40.8909 5.2 40.8909 4.8C40.8909 4.4 40.8229 4.036 40.6869 3.708C40.5589 3.38 40.3749 3.096 40.1349 2.856C39.9029 2.616 39.6269 2.432 39.3069 2.304C38.9869 2.176 38.6389 2.112 38.2629 2.112C37.8869 2.112 37.5389 2.176 37.2189 2.304C36.9069 2.432 36.6309 2.616 36.3909 2.856C36.1509 3.096 35.9629 3.38 35.8269 3.708C35.6989 4.036 35.6349 4.4 35.6349 4.8C35.6349 5.192 35.6989 5.556 35.8269 5.892C35.9629 6.22 36.1469 6.504 36.3789 6.744C36.6189 6.984 36.8989 7.168 37.2189 7.296C37.5389 7.424 37.8869 7.488 38.2629 7.488ZM49.5371 9V1.128L49.7771 1.368H46.5851V0.599999H53.3651V1.368H50.1851L50.4131 1.128V9H49.5371ZM57.8078 9.06C57.2638 9.06 56.7718 8.936 56.3318 8.688C55.8918 8.432 55.5398 8.068 55.2758 7.596C55.0198 7.116 54.8918 6.532 54.8918 5.844C54.8918 5.156 55.0198 4.576 55.2758 4.104C55.5318 3.624 55.8798 3.26 56.3198 3.012C56.7598 2.764 57.2558 2.64 57.8078 2.64C58.4078 2.64 58.9438 2.776 59.4158 3.048C59.8958 3.312 60.2718 3.688 60.5438 4.176C60.8158 4.656 60.9518 5.212 60.9518 5.844C60.9518 6.484 60.8158 7.044 60.5438 7.524C60.2718 8.004 59.8958 8.38 59.4158 8.652C58.9438 8.924 58.4078 9.06 57.8078 9.06ZM54.5558 11.328V2.7H55.3718V4.596L55.2878 5.856L55.4078 7.128V11.328H54.5558ZM57.7478 8.304C58.1958 8.304 58.5958 8.204 58.9478 8.004C59.2998 7.796 59.5798 7.508 59.7878 7.14C59.9958 6.764 60.0998 6.332 60.0998 5.844C60.0998 5.356 59.9958 4.928 59.7878 4.56C59.5798 4.192 59.2998 3.904 58.9478 3.696C58.5958 3.488 58.1958 3.384 57.7478 3.384C57.2998 3.384 56.8958 3.488 56.5358 3.696C56.1838 3.904 55.9038 4.192 55.6958 4.56C55.4958 4.928 55.3958 5.356 55.3958 5.844C55.3958 6.332 55.4958 6.764 55.6958 7.14C55.9038 7.508 56.1838 7.796 56.5358 8.004C56.8958 8.204 57.2998 8.304 57.7478 8.304ZM65.4823 9.06C64.8263 9.06 64.2503 8.924 63.7543 8.652C63.2583 8.372 62.8703 7.992 62.5903 7.512C62.3103 7.024 62.1703 6.468 62.1703 5.844C62.1703 5.22 62.3023 4.668 62.5663 4.188C62.8383 3.708 63.2063 3.332 63.6703 3.06C64.1423 2.78 64.6703 2.64 65.2543 2.64C65.8463 2.64 66.3703 2.776 66.8263 3.048C67.2903 3.312 67.6543 3.688 67.9183 4.176C68.1823 4.656 68.3143 5.212 68.3143 5.844C68.3143 5.884 68.3103 5.928 68.3023 5.976C68.3023 6.016 68.3023 6.06 68.3023 6.108H62.8183V5.472H67.8463L67.5103 5.724C67.5103 5.268 67.4103 4.864 67.2103 4.512C67.0183 4.152 66.7543 3.872 66.4183 3.672C66.0823 3.472 65.6943 3.372 65.2543 3.372C64.8223 3.372 64.4343 3.472 64.0903 3.672C63.7463 3.872 63.4783 4.152 63.2863 4.512C63.0943 4.872 62.9983 5.284 62.9983 5.748V5.88C62.9983 6.36 63.1023 6.784 63.3103 7.152C63.5263 7.512 63.8223 7.796 64.1983 8.004C64.5823 8.204 65.0183 8.304 65.5063 8.304C65.8903 8.304 66.2463 8.236 66.5743 8.1C66.9103 7.964 67.1983 7.756 67.4383 7.476L67.9183 8.028C67.6383 8.364 67.2863 8.62 66.8623 8.796C66.4463 8.972 65.9863 9.06 65.4823 9.06ZM74.8203 9L72.2283 5.88L72.9363 5.46L75.8283 9H74.8203ZM70.2003 9V2.7H71.0523V9H70.2003ZM70.7883 6.192V5.46H72.8163V6.192H70.7883ZM73.0083 5.94L72.2163 5.82L74.7243 2.7H75.6483L73.0083 5.94ZM77.1729 9V2.7H78.0249V7.704L82.2369 2.7H82.9929V9H82.1409V3.984L77.9409 9H77.1729ZM85.4347 9V2.7H86.2867V5.484H90.2587V2.7H91.1107V9H90.2587V6.216H86.2867V9H85.4347ZM93.5323 9V2.7H97.9963V3.444H94.1683L94.3843 3.228V9H93.5323Z" fill="#25262C"/>
</svg>
