<svg width="16" height="16" viewBox="0 0 16 16" fill="none" xmlns="http://www.w3.org/2000/svg">
<path fill-rule="evenodd" clip-rule="evenodd" d="M13.3334 12L13.1265 11.5528C12.9942 11.2668 12.8835 10.9705 12.7953 10.6667C12.6821 10.2769 12.6057 9.87476 12.568 9.46656L12.2629 6.16923C12.0439 3.8024 10.201 2 8.00008 2C5.79915 2 3.9563 3.8024 3.7373 6.16923L3.4322 9.46656C3.39443 9.87476 3.3181 10.2769 3.20487 10.6667C3.11661 10.9705 3.00594 11.2668 2.87364 11.5528L2.66675 12H13.3334ZM10.0001 12.6667H8.66675C8.45319 13.3073 7.54697 13.3073 7.33341 12.6667H6.00008C6.00008 12.9004 6.04018 13.1248 6.11388 13.3333C6.20169 13.5817 6.33717 13.8076 6.50934 14C6.87556 14.4092 7.40775 14.6667 8.00008 14.6667C8.59241 14.6667 9.1246 14.4092 9.49082 14C9.66299 13.8076 9.79848 13.5817 9.88628 13.3333C9.95998 13.1248 10.0001 12.9004 10.0001 12.6667ZM4.58332 10.6667H11.4168C11.333 10.3131 11.2739 9.95303 11.2403 9.58941L10.9352 6.29208C10.7717 4.52557 9.42957 3.33333 8.00008 3.33333C6.57059 3.33333 5.22841 4.52557 5.06496 6.29208L4.75986 9.58941C4.72622 9.95303 4.66715 10.3131 4.58332 10.6667Z" fill="#25262C"/>
</svg>
