<svg width="14" height="14" viewBox="0 0 14 14" fill="none" xmlns="http://www.w3.org/2000/svg">
<path d="M3.66666 6.66667C3.27269 6.66667 2.88258 6.58907 2.51861 6.43831C2.15463 6.28755 1.82391 6.06657 1.54534 5.78799C1.26676 5.50942 1.04578 5.1787 0.895018 4.81472C0.744254 4.45075 0.666656 4.06064 0.666656 3.66667C0.666656 3.27271 0.744254 2.8826 0.895018 2.51862C1.04578 2.15464 1.26676 1.82393 1.54534 1.54535C1.82391 1.26678 2.15463 1.0458 2.51861 0.895033C2.88258 0.744269 3.27269 0.666672 3.66666 0.666672C4.46231 0.666672 5.22537 0.982742 5.78798 1.54535C6.35059 2.10796 6.66666 2.87102 6.66666 3.66667C6.66666 4.46232 6.35059 5.22538 5.78798 5.78799C5.22537 6.3506 4.46231 6.66667 3.66666 6.66667ZM3.66666 13.3333C2.87101 13.3333 2.10795 13.0173 1.54534 12.4547C0.982727 11.892 0.666656 11.129 0.666656 10.3333C0.666656 9.53769 0.982727 8.77463 1.54534 8.21202C2.10795 7.64941 2.87101 7.33334 3.66666 7.33334C4.46231 7.33334 5.22537 7.64941 5.78798 8.21202C6.35059 8.77463 6.66666 9.53769 6.66666 10.3333C6.66666 11.129 6.35059 11.892 5.78798 12.4547C5.22537 13.0173 4.46231 13.3333 3.66666 13.3333ZM10.3333 6.66667C9.93936 6.66667 9.54925 6.58907 9.18527 6.43831C8.8213 6.28755 8.49058 6.06657 8.212 5.78799C7.93343 5.50942 7.71245 5.1787 7.56168 4.81472C7.41092 4.45075 7.33332 4.06064 7.33332 3.66667C7.33332 3.27271 7.41092 2.8826 7.56168 2.51862C7.71245 2.15464 7.93343 1.82393 8.212 1.54535C8.49058 1.26678 8.8213 1.0458 9.18527 0.895033C9.54925 0.744269 9.93936 0.666672 10.3333 0.666672C11.129 0.666672 11.892 0.982742 12.4546 1.54535C13.0173 2.10796 13.3333 2.87102 13.3333 3.66667C13.3333 4.46232 13.0173 5.22538 12.4546 5.78799C11.892 6.3506 11.129 6.66667 10.3333 6.66667ZM10.3333 13.3333C9.53767 13.3333 8.77461 13.0173 8.212 12.4547C7.64939 11.892 7.33332 11.129 7.33332 10.3333C7.33332 9.53769 7.64939 8.77463 8.212 8.21202C8.77461 7.64941 9.53767 7.33334 10.3333 7.33334C11.129 7.33334 11.892 7.64941 12.4546 8.21202C13.0173 8.77463 13.3333 9.53769 13.3333 10.3333C13.3333 11.129 13.0173 11.892 12.4546 12.4547C11.892 13.0173 11.129 13.3333 10.3333 13.3333Z" fill="#1D223D"/>
</svg>
